<svg width="335" height="75" viewBox="0 0 335 75" fill="none" xmlns="http://www.w3.org/2000/svg">
<path fill-rule="evenodd" clip-rule="evenodd" d="M0 3.02466C6.09323 3.02466 8.66067 7.28292 11.4056 11.8496L33.8145 50.3874C34.8675 52.3089 35.9087 54.6338 35.885 56.8163C35.8022 62.486 28.4666 64.5618 24.0653 64.7753C20.8471 64.9295 17.6763 64.1822 14.8131 62.8893L13.0265 65.1904C14.0677 69.6385 18.1732 75.0354 23.8168 74.9998C33.6133 74.9287 38.7601 65.9496 42.7 58.6311L50 45.0853L28.8216 8.65884C26.8694 5.39695 30.0757 3.03653 33.495 3.0128L34.2759 0H0.78088L0 3.02466Z" fill="#1E4391"/>
<path d="M85.246 50.046C81.83 50.046 79.002 48.968 76.762 46.812C74.522 44.656 73.402 41.884 73.402 38.496V20.1H78.274V38.202C78.274 40.358 78.918 42.108 80.206 43.452C81.494 44.768 83.174 45.426 85.246 45.426C87.29 45.426 88.956 44.768 90.244 43.452C91.532 42.108 92.176 40.358 92.176 38.202V20.1H97.006V38.496C97.006 41.884 95.886 44.656 93.646 46.812C91.434 48.968 88.634 50.046 85.246 50.046ZM120.888 49.5L114.588 38.622H109.002V49.5H104.172V20.1H115.638C117.486 20.1 119.166 20.492 120.678 21.276C122.19 22.06 123.366 23.166 124.206 24.594C125.074 26.022 125.508 27.618 125.508 29.382C125.508 31.37 124.962 33.134 123.87 34.674C122.778 36.186 121.322 37.278 119.502 37.95L126.306 49.5H120.888ZM109.002 24.636V34.086H115.344C116.128 34.086 116.842 33.974 117.486 33.75C118.158 33.526 118.718 33.204 119.166 32.784C119.614 32.364 119.964 31.86 120.216 31.272C120.468 30.684 120.594 30.04 120.594 29.34C120.594 27.968 120.104 26.848 119.124 25.98C118.172 25.084 116.912 24.636 115.344 24.636H109.002ZM148.497 24.636H136.359V32.952H147.405V37.362H136.359V49.5H131.529V20.1H148.497V24.636ZM165.226 50.046C161.81 50.046 158.982 48.968 156.742 46.812C154.502 44.656 153.382 41.884 153.382 38.496V20.1H158.254V38.202C158.254 40.358 158.898 42.108 160.186 43.452C161.474 44.768 163.154 45.426 165.226 45.426C167.27 45.426 168.936 44.768 170.224 43.452C171.512 42.108 172.156 40.358 172.156 38.202V20.1H176.986V38.496C176.986 41.884 175.866 44.656 173.626 46.812C171.414 48.968 168.614 50.046 165.226 50.046ZM182.119 49.5V44.124H187.243V49.5H182.119ZM213.827 49.5L211.265 43.116H198.161L195.641 49.5H190.517L202.361 20.1H206.897L219.035 49.5H213.827ZM204.671 26.4L199.841 38.79H209.585L204.671 26.4ZM235.123 26.274C237.363 26.274 239.379 26.792 241.171 27.828C242.963 28.836 244.363 30.25 245.371 32.07C246.379 33.89 246.883 35.92 246.883 38.16C246.883 41.576 245.763 44.418 243.523 46.686C241.311 48.926 238.511 50.046 235.123 50.046C232.211 50.046 229.705 49.136 227.605 47.316V57.648H222.943V26.82H226.093L226.975 29.592C229.159 27.38 231.875 26.274 235.123 26.274ZM229.453 43.494C230.853 44.894 232.617 45.594 234.745 45.594C236.901 45.594 238.679 44.894 240.079 43.494C241.479 42.066 242.179 40.288 242.179 38.16C242.179 36.032 241.479 34.268 240.079 32.868C238.679 31.44 236.915 30.726 234.787 30.726C233.387 30.726 232.113 31.048 230.965 31.692C229.817 32.336 228.921 33.232 228.277 34.38C227.661 35.5 227.353 36.76 227.353 38.16C227.353 40.288 228.053 42.066 229.453 43.494ZM270.884 26.82H274.496V49.5H270.716L270.254 46.728C268.07 48.94 265.34 50.046 262.064 50.046C258.676 50.046 255.848 48.912 253.58 46.644C251.34 44.376 250.22 41.548 250.22 38.16C250.22 34.744 251.34 31.916 253.58 29.676C255.848 27.408 258.676 26.274 262.064 26.274C265.396 26.274 268.154 27.394 270.338 29.634L270.884 26.82ZM257.066 43.494C258.494 44.894 260.272 45.594 262.4 45.594C264.556 45.594 266.32 44.894 267.692 43.494C269.092 42.066 269.792 40.288 269.792 38.16C269.792 36.004 269.092 34.226 267.692 32.826C266.32 31.426 264.556 30.726 262.4 30.726C261 30.726 259.726 31.048 258.578 31.692C257.458 32.336 256.576 33.232 255.932 34.38C255.288 35.5 254.966 36.76 254.966 38.16C254.966 40.288 255.666 42.066 257.066 43.494ZM308.906 45.174H311.552V49.542H308.318C305.742 49.542 303.684 48.786 302.144 47.274C300.632 45.734 299.876 43.676 299.876 41.1V30.852H295.088V26.862H299.876V20.352H304.538V26.862H311.468V30.852H304.538V40.848C304.538 42.248 304.916 43.326 305.672 44.082C306.428 44.81 307.506 45.174 308.906 45.174ZM285.092 29.97C286.716 27.842 289.026 26.778 292.022 26.778H293.492V31.104H291.602C287.738 31.104 285.806 33.204 285.806 37.404V49.5H281.144V26.82H284.294L285.092 29.97ZM323.691 50.046C320.919 50.046 318.693 49.346 317.013 47.946C315.333 46.546 314.465 44.67 314.409 42.318H318.986C319.043 43.466 319.505 44.362 320.373 45.006C321.269 45.622 322.431 45.93 323.859 45.93C324.699 45.93 325.441 45.818 326.085 45.594C326.757 45.37 327.289 45.034 327.681 44.586C328.073 44.138 328.269 43.606 328.269 42.99C328.269 42.57 328.171 42.206 327.975 41.898C327.779 41.562 327.541 41.296 327.261 41.1C326.981 40.904 326.575 40.722 326.043 40.554C325.539 40.386 325.077 40.26 324.657 40.176C324.265 40.092 323.733 39.994 323.061 39.882C322.361 39.77 321.801 39.672 321.381 39.588C320.961 39.504 320.429 39.378 319.785 39.21C319.141 39.014 318.609 38.818 318.189 38.622C317.797 38.398 317.363 38.118 316.887 37.782C316.411 37.446 316.033 37.068 315.753 36.648C315.501 36.228 315.277 35.724 315.081 35.136C314.913 34.52 314.829 33.848 314.829 33.12C314.829 31.076 315.627 29.424 317.223 28.164C318.847 26.904 320.975 26.274 323.606 26.274C326.239 26.274 328.353 26.932 329.949 28.248C331.545 29.564 332.357 31.328 332.385 33.54H327.975C327.947 32.476 327.541 31.664 326.757 31.104C325.973 30.516 324.895 30.222 323.523 30.222C322.235 30.222 321.213 30.474 320.457 30.978C319.701 31.482 319.323 32.14 319.323 32.952C319.323 33.288 319.379 33.582 319.491 33.834C319.603 34.086 319.785 34.31 320.037 34.506C320.317 34.702 320.569 34.87 320.793 35.01C321.045 35.122 321.409 35.234 321.885 35.346C322.361 35.458 322.753 35.542 323.061 35.598C323.369 35.654 323.817 35.724 324.405 35.808C325.161 35.948 325.721 36.06 326.085 36.144C326.477 36.2 327.023 36.326 327.723 36.522C328.423 36.69 328.969 36.872 329.361 37.068C329.753 37.264 330.201 37.544 330.705 37.908C331.237 38.244 331.629 38.636 331.881 39.084C332.161 39.504 332.399 40.036 332.595 40.68C332.791 41.324 332.889 42.024 332.889 42.78C332.889 44.992 332.049 46.756 330.369 48.072C328.689 49.388 326.463 50.046 323.691 50.046Z" fill="#1E4391"/>
</svg>
