<svg width="200" height="159" viewBox="0 0 200 159" fill="none" xmlns="http://www.w3.org/2000/svg">
<path d="M1.19678 157.031V144.63C1.19678 144.542 1.2077 144.455 1.23242 144.37C4.01468 134.759 25.2677 124.349 38.8332 123.769C39.4455 123.743 39.9103 124.29 39.8721 124.901C39.3401 133.432 46.8119 143.7 51.5788 148.821C52.0679 149.346 52.9252 149.169 53.1918 148.502L56.0556 141.343C56.1705 141.056 56.1456 140.733 55.9943 140.463C53.0621 135.23 50.2134 125.548 60.7494 125.548C71.2057 125.548 68.479 135.085 65.5709 140.344C65.3855 140.679 65.396 141.09 65.6086 141.409L70.0575 148.082C70.3873 148.577 71.0705 148.679 71.5031 148.271C75.2338 144.755 81.6246 136.266 83.1925 124.675C83.2631 124.152 83.7159 123.76 84.2414 123.8C99.6113 124.971 115.454 137.639 121.835 144.214C122.014 144.399 122.107 144.64 122.107 144.897V157.031C122.107 157.584 121.659 158.031 121.107 158.031H2.19678C1.64449 158.031 1.19678 157.584 1.19678 157.031Z" fill="#323232"/>
<path d="M89.6234 76.8232C90.3452 107.863 71.5771 119.232 60.7494 119.232C49.0193 119.232 32.7777 104.797 32.7777 76.8232C32.7777 54.4439 51.4255 48.2492 60.7494 47.9492C70.3741 47.6484 89.6234 53.0021 89.6234 76.8232Z" fill="#323232"/>
<path d="M96.3258 96.2913L98.4327 89.2682C98.5596 88.8452 98.9489 88.5555 99.3905 88.5555H124.568C125.175 88.5555 125.642 89.0913 125.559 89.6922L122.538 111.597C122.404 112.564 123.593 113.13 124.259 112.416L147.052 87.9953C147.254 87.7785 147.54 87.6628 147.836 87.6783C153.518 87.9763 166.418 88.3552 176.245 87.6532C186.351 86.9314 189.479 77.1263 189.78 72.3139V26.296C189.78 14.7464 177.749 11.2575 171.734 10.9567H89.6234C75.9082 10.9567 71.8779 21.1829 71.5771 26.296V38.8307C71.5771 39.383 71.1294 39.8307 70.5771 39.8307H63.554C63.0017 39.8307 62.554 39.5324 62.554 38.9801V21.7844C62.554 5.90374 79.9987 1.33202 88.7211 1.03125H176.245C193.57 1.03125 198.502 16.0698 198.803 23.5891V75.9232C198.803 92.5257 183.765 97.2779 176.245 97.5787H153.272C152.965 97.5787 152.679 97.7143 152.489 97.9557C146.91 105.024 134.224 119.491 125.716 123.743C117.18 128.009 113.201 122.117 112.223 118.492C112.194 118.385 112.186 118.275 112.196 118.165L113.891 98.6653C113.942 98.081 113.482 97.5787 112.895 97.5787H97.2836C96.6137 97.5787 96.1333 96.9329 96.3258 96.2913Z" fill="#323232"/>
<path d="M112.181 74.9232V52.0291C112.181 51.7323 112.313 51.4509 112.541 51.2609L133.183 34.0595C133.56 33.7454 134.109 33.7511 134.479 34.0731L154.246 51.2618C154.464 51.4517 154.59 51.7269 154.59 52.0164V74.9232C154.59 75.4755 154.142 75.9232 153.59 75.9232H142.055C141.503 75.9232 141.055 75.4755 141.055 74.9232V59.7792C141.055 59.227 140.607 58.7792 140.055 58.7792H126.716C126.164 58.7792 125.716 59.227 125.716 59.7792V74.9232C125.716 75.4755 125.268 75.9232 124.716 75.9232H113.181C112.629 75.9232 112.181 75.4755 112.181 74.9232Z" fill="#323232"/>
<path d="M159.043 49.7014L134.124 26.5632C133.939 26.3914 133.696 26.296 133.444 26.296H133.317C133.071 26.296 132.833 26.387 132.649 26.5514L106.767 49.7561C106.166 50.3577 104.421 51.1998 102.256 49.7561C100.09 48.3124 101.353 46.1469 102.256 45.2446L130.841 18.4456C131.027 18.2719 131.271 18.1752 131.525 18.1752H134.344C134.598 18.1752 134.842 18.2719 135.027 18.4456L163.507 45.1449C163.574 45.2076 163.65 45.2588 163.726 45.3098L163.739 45.3179C164.319 45.706 164.958 46.8359 163.613 48.8538C162.204 50.9674 160.107 50.3878 159.168 49.7994C159.123 49.771 159.082 49.7378 159.043 49.7014Z" fill="#323232"/>
<path d="M1.19678 157.031V144.63C1.19678 144.542 1.2077 144.455 1.23242 144.37C4.01468 134.759 25.2677 124.349 38.8332 123.769C39.4455 123.743 39.9103 124.29 39.8721 124.901C39.3401 133.432 46.8119 143.7 51.5788 148.821C52.0679 149.346 52.9252 149.169 53.1918 148.502L56.0556 141.343C56.1705 141.056 56.1456 140.733 55.9943 140.463C53.0621 135.23 50.2134 125.548 60.7494 125.548C71.2057 125.548 68.479 135.085 65.5709 140.344C65.3855 140.679 65.396 141.09 65.6086 141.409L70.0575 148.082C70.3873 148.577 71.0705 148.679 71.5031 148.271C75.2338 144.755 81.6246 136.266 83.1925 124.675C83.2631 124.152 83.7159 123.76 84.2414 123.8C99.6113 124.971 115.454 137.639 121.835 144.214C122.014 144.399 122.107 144.64 122.107 144.897V157.031C122.107 157.584 121.659 158.031 121.107 158.031H2.19678C1.64449 158.031 1.19678 157.584 1.19678 157.031Z" stroke="#323232"/>
<path d="M89.6234 76.8232C90.3452 107.863 71.5771 119.232 60.7494 119.232C49.0193 119.232 32.7777 104.797 32.7777 76.8232C32.7777 54.4439 51.4255 48.2492 60.7494 47.9492C70.3741 47.6484 89.6234 53.0021 89.6234 76.8232Z" stroke="#323232"/>
<path d="M96.3258 96.2913L98.4327 89.2682C98.5596 88.8452 98.9489 88.5555 99.3905 88.5555H124.568C125.175 88.5555 125.642 89.0913 125.559 89.6922L122.538 111.597C122.404 112.564 123.593 113.13 124.259 112.416L147.052 87.9953C147.254 87.7785 147.54 87.6628 147.836 87.6783C153.518 87.9763 166.418 88.3552 176.245 87.6532C186.351 86.9314 189.479 77.1263 189.78 72.3139V26.296C189.78 14.7464 177.749 11.2575 171.734 10.9567H89.6234C75.9082 10.9567 71.8779 21.1829 71.5771 26.296V38.8307C71.5771 39.383 71.1294 39.8307 70.5771 39.8307H63.554C63.0017 39.8307 62.554 39.5324 62.554 38.9801V21.7844C62.554 5.90374 79.9987 1.33202 88.7211 1.03125H176.245C193.57 1.03125 198.502 16.0698 198.803 23.5891V75.9232C198.803 92.5257 183.765 97.2779 176.245 97.5787H153.272C152.965 97.5787 152.679 97.7143 152.489 97.9557C146.91 105.024 134.224 119.491 125.716 123.743C117.18 128.009 113.201 122.117 112.223 118.492C112.194 118.385 112.186 118.275 112.196 118.165L113.891 98.6653C113.942 98.081 113.482 97.5787 112.895 97.5787H97.2836C96.6137 97.5787 96.1333 96.9329 96.3258 96.2913Z" stroke="#323232"/>
<path d="M112.181 74.9232V52.0291C112.181 51.7323 112.313 51.4509 112.541 51.2609L133.183 34.0595C133.56 33.7454 134.109 33.7511 134.479 34.0731L154.246 51.2618C154.464 51.4517 154.59 51.7269 154.59 52.0164V74.9232C154.59 75.4755 154.142 75.9232 153.59 75.9232H142.055C141.503 75.9232 141.055 75.4755 141.055 74.9232V59.7792C141.055 59.227 140.607 58.7792 140.055 58.7792H126.716C126.164 58.7792 125.716 59.227 125.716 59.7792V74.9232C125.716 75.4755 125.268 75.9232 124.716 75.9232H113.181C112.629 75.9232 112.181 75.4755 112.181 74.9232Z" stroke="#323232"/>
<path d="M159.043 49.7014L134.124 26.5632C133.939 26.3914 133.696 26.296 133.444 26.296H133.317C133.071 26.296 132.833 26.387 132.649 26.5514L106.767 49.7561C106.166 50.3577 104.421 51.1998 102.256 49.7561C100.09 48.3124 101.353 46.1469 102.256 45.2446L130.841 18.4456C131.027 18.2719 131.271 18.1752 131.525 18.1752H134.344C134.598 18.1752 134.842 18.2719 135.027 18.4456L163.507 45.1449C163.574 45.2076 163.65 45.2588 163.726 45.3098L163.739 45.3179C164.319 45.706 164.958 46.8359 163.613 48.8538C162.204 50.9674 160.107 50.3878 159.168 49.7994C159.123 49.771 159.082 49.7378 159.043 49.7014Z" stroke="#323232"/>
</svg>
